<svg viewBox="0 0 803 440" fill="none" xmlns="http://www.w3.org/2000/svg">
<path d="M23.1169 147.13L235.266 6.81593C240.255 3.51593 242.635 1.95194 245.28 1.45094C246.271 1.26294 247.28 1.18693 248.288 1.22393C250.977 1.32193 253.566 2.50994 258.994 5.02194L777.819 245.156C785.211 248.577 790.714 251.125 794.615 253.521C798.516 255.918 800.722 258.109 801.633 260.772C802.3 262.721 802.512 264.796 802.253 266.839C801.899 269.631 800.182 272.223 796.846 275.359C793.51 278.494 788.635 282.102 782.088 286.947L584.848 432.9C579.763 436.664 577.335 438.447 574.574 439.065C573.541 439.297 572.484 439.406 571.425 439.39C568.596 439.348 565.856 438.098 560.109 435.451L26.3742 189.68C18.5577 186.08 12.7366 183.399 8.6303 180.888C4.5219 178.375 2.2305 176.091 1.3465 173.334C0.701099 171.32 0.537498 169.184 0.868998 167.096C1.3229 164.236 3.2399 161.629 6.9179 158.521C10.5941 155.414 15.9393 151.878 23.1169 147.13Z" stroke="black"/>
<path d="M56.089 141.398L239.993 19.764C244.983 16.464 247.363 14.901 250.007 14.4C250.998 14.212 252.007 14.135 253.015 14.172C255.705 14.271 258.293 15.458 263.722 17.971L720.929 229.585C728.321 233.006 733.824 235.554 737.725 237.95C741.626 240.347 743.832 242.538 744.743 245.201C745.409 247.149 745.621 249.225 745.362 251.267C745.009 254.06 743.291 256.652 739.955 259.788C736.619 262.923 731.745 266.531 725.197 271.376L554.232 397.887C549.146 401.65 546.719 403.434 543.958 404.052C542.925 404.283 541.868 404.392 540.809 404.377C537.979 404.335 535.239 403.084 529.493 400.438L59.3463 183.947C51.5298 180.348 45.7086 177.667 41.6024 175.156C37.494 172.643 35.2026 170.359 34.3186 167.601C33.6732 165.588 33.5096 163.451 33.841 161.364C34.295 158.504 36.212 155.897 39.89 152.789C43.5662 149.682 48.9114 146.145 56.089 141.398Z" stroke="black"/>
</svg>
