<svg width="763" height="736" viewBox="0 0 763 736" fill="none" xmlns="http://www.w3.org/2000/svg">
<g id="Group">
<g id="ui" filter="url(#filter0_d)">
<path id="Union" fill-rule="evenodd" clip-rule="evenodd" d="M404.905 238.549C410.608 227.021 411.031 217.13 407.642 207.663C403.812 196.967 395.176 187.053 384.807 176.05C374.014 164.599 350.504 152.748 325.792 148.792C301.059 144.832 274.39 148.687 257.94 169.654C249.867 179.943 246.089 189.285 245.421 197.789C244.751 206.31 247.221 213.777 251.261 220.271C258.185 231.399 269.914 239.901 278.682 246.257C280.023 247.229 281.295 248.151 282.47 249.025C287.351 252.654 296.22 255.812 306.748 258.142C317.363 260.492 329.947 262.059 342.478 262.35C354.997 262.641 367.556 261.661 378.085 258.859C382.052 257.804 385.783 256.475 389.133 254.829C389.134 254.829 389.135 254.829 389.136 254.828C393.993 252.594 398.463 249.568 401.422 245.44C402.866 243.425 404.006 241.066 404.905 238.549ZM405.709 208.202C402.017 198.007 393.712 188.414 383.348 177.417C362.531 155.329 291.119 130.606 259.518 170.885C230.025 208.478 260.872 230.863 279.814 244.608C281.167 245.59 282.46 246.528 283.666 247.424C293.975 255.089 325.063 261.34 352.933 260.286C352.528 259.828 351.979 259.197 351.323 258.421C349.888 256.724 347.938 254.328 345.877 251.528C341.798 245.987 337.118 238.647 335.293 231.95C334.933 230.63 334.534 229.31 334.138 228C333.353 225.403 332.58 222.844 332.147 220.397C326.059 223.958 318.937 227.065 311.884 228.138C303.751 229.376 295.502 227.92 289.252 221.109C278.75 209.666 279.008 193.201 289.025 181.497C300.093 168.567 320.479 166.872 332.797 178.869C338.259 184.188 342.297 191.744 343.251 199.157C343.285 199.423 343.315 199.689 343.341 199.954C346.649 198.713 350.325 198.042 353.748 197.689C357.465 197.306 360.975 197.291 363.548 197.369C364.837 197.409 365.898 197.472 366.64 197.526C367.011 197.552 367.303 197.577 367.504 197.595C367.605 197.604 367.683 197.612 367.737 197.617L367.8 197.623L367.818 197.625L367.823 197.625L367.825 197.626C367.825 197.626 367.826 197.626 367.619 199.612C367.619 199.612 353.247 198.103 343.462 202.052C343.563 208.541 341.081 214.789 334.729 218.822C334.487 218.976 334.241 219.13 333.994 219.283C334.369 221.846 335.156 224.446 336.005 227.249L336.005 227.249C336.41 228.59 336.83 229.977 337.226 231.429C340.669 244.065 355.173 259.789 355.173 259.789C355.173 259.789 374.221 259.482 388.277 253.023C393.499 250.452 397.629 247.131 400.186 242.943C401.266 241.173 402.221 239.449 403.058 237.766C407.168 226.137 406.125 210.392 406.125 210.392L367.619 199.612L367.826 197.626L367.995 197.643L368.158 197.689L405.709 208.202ZM333.78 217.055C339.045 213.653 341.32 208.529 341.457 202.977C339.018 204.26 337.012 205.977 335.809 208.263C334.178 211.361 333.662 214.215 333.78 217.055ZM334.035 207.333C335.633 204.296 338.352 202.21 341.402 200.771C340.868 193.436 336.911 185.664 331.399 180.296C319.972 169.168 300.922 170.676 290.55 182.795C281.145 193.782 280.953 209.11 290.728 219.762C301.544 231.547 319.016 225.937 331.854 218.246C331.532 214.748 332.003 211.194 334.035 207.333ZM349.321 297.03L346.752 298.91L349.56 300.409L402.154 328.486L403.309 329.103L404.337 328.29L533.46 226.069L536.029 224.035L533.046 222.68L483.446 200.149L482.381 199.666L481.438 200.356L349.321 297.03ZM350.502 298.645L352.293 297.334L482.619 201.97L530.171 223.571L532.219 224.501L530.456 225.897L403.095 326.722L352.46 299.69L350.502 298.645ZM534.547 346.042L616.975 277.435C620.36 274.617 625.015 273.879 629.104 275.511L651.628 284.504C659.912 287.811 661.814 298.682 655.146 304.613L576.573 374.506C573.203 377.504 568.438 378.361 564.237 376.724L537.858 366.445C529.345 363.127 527.522 351.89 534.547 346.042ZM535.826 347.579C529.971 352.452 531.491 361.817 538.585 364.581L564.965 374.86C568.465 376.224 572.436 375.51 575.244 373.012L653.817 303.119C659.373 298.176 657.789 289.117 650.886 286.361L628.361 277.368C624.954 276.008 621.074 276.623 618.253 278.971L535.826 347.579ZM609.76 308.185L609.762 308.185L609.777 308.183L609.839 308.175C609.895 308.167 609.98 308.155 610.092 308.138C610.315 308.104 610.645 308.051 611.061 307.973C611.894 307.817 613.07 307.564 614.431 307.179C617.166 306.405 620.594 305.113 623.5 303.036L624.668 304.659C621.501 306.923 617.828 308.294 614.98 309.1C613.55 309.505 612.314 309.77 611.433 309.935C610.993 310.018 610.64 310.075 610.395 310.112L610.331 310.122C610.293 310.157 610.25 310.197 610.203 310.24C609.976 310.452 609.647 310.761 609.249 311.146C608.451 311.917 607.375 312.99 606.258 314.2C605.14 315.412 603.992 316.749 603.045 318.049C602.085 319.367 601.385 320.576 601.093 321.539C600.636 323.046 599.506 323.929 598.205 324.489C596.936 325.036 595.371 325.333 593.834 325.61L593.547 325.661C590.434 326.219 587.346 326.773 585.245 328.706C584.229 329.64 583.575 330.837 583.081 332.211C582.698 333.278 582.43 334.389 582.154 335.538C582.068 335.894 581.981 336.254 581.89 336.618C581.15 339.565 580.107 342.776 576.388 343.874C575.141 344.243 573.852 344.012 572.705 343.643C571.808 343.354 570.888 342.941 570.054 342.566C569.827 342.464 569.606 342.365 569.394 342.272C568.336 341.808 567.506 341.505 566.854 341.468C566.553 341.451 566.34 341.496 566.178 341.576C566.023 341.653 565.846 341.797 565.669 342.097C565.383 342.579 565.277 343.412 565.417 344.583C565.553 345.716 565.898 346.992 566.313 348.213C566.725 349.428 567.195 350.554 567.563 351.379C567.747 351.79 567.904 352.125 568.015 352.355L568.04 352.406L568.086 352.502L568.115 352.561L568.144 352.619L568.177 352.685L568.185 352.701L568.187 352.705L568.187 352.705C568.187 352.705 568.187 352.705 567.294 353.156C566.401 353.608 566.401 353.608 566.401 353.607L566.401 353.607L566.4 353.605L566.397 353.599L566.387 353.579L566.348 353.502C566.316 353.436 566.268 353.34 566.209 353.217C566.091 352.972 565.926 352.62 565.733 352.189C565.349 351.328 564.854 350.142 564.415 348.851C563.979 347.567 563.588 346.145 563.429 344.818C563.274 343.531 563.314 342.145 563.943 341.081C564.286 340.501 564.732 340.062 565.284 339.788C565.831 339.517 566.409 339.443 566.965 339.474C568.027 339.534 569.172 339.994 570.198 340.444C570.449 340.554 570.695 340.665 570.939 340.774C571.757 341.141 572.538 341.492 573.318 341.742C574.324 342.066 575.145 342.158 575.817 341.96C578.364 341.208 579.198 339.111 579.947 336.13C580.027 335.812 580.106 335.483 580.187 335.147L580.188 335.14C580.47 333.971 580.772 332.715 581.195 331.535C581.751 329.99 582.548 328.468 583.885 327.238C586.429 324.897 590.055 324.253 593 323.729L593.007 323.728L593.024 323.725L593.174 323.698L593.477 323.644C595.055 323.36 596.388 323.095 597.409 322.656C598.398 322.23 598.95 321.704 599.176 320.959C599.567 319.67 600.427 318.243 601.423 316.875C602.432 315.489 603.636 314.09 604.784 312.847C605.933 311.601 607.037 310.501 607.854 309.712C608.263 309.317 608.6 308.999 608.836 308.78C608.954 308.67 609.046 308.585 609.11 308.527L609.183 308.46L609.202 308.442L609.207 308.438L609.209 308.436L609.209 308.436C609.21 308.436 609.21 308.436 609.882 309.176L609.21 308.436L609.445 308.223L609.76 308.185L609.76 308.185ZM423.23 333.901L425.798 332.021L557.915 235.347L558.859 234.656L559.923 235.14L609.523 257.671L612.507 259.026L609.937 261.06L480.814 363.281L479.787 364.094L478.631 363.477L426.037 335.4L423.23 333.901ZM428.77 332.324L426.979 333.635L428.937 334.681L479.573 361.713L606.933 260.887L608.696 259.492L606.649 258.562L559.096 236.961L428.77 332.324Z" fill="#87A330"/>
</g>
<g id="phone">
<path id="Rectangle" d="M78.9917 282.526L234.959 179.37C239.948 176.07 242.328 174.506 244.972 174.005C245.964 173.817 246.973 173.741 247.981 173.778C250.67 173.876 253.258 175.064 258.687 177.576L654.946 360.981C662.338 364.402 667.841 366.95 671.742 369.346C675.643 371.743 677.849 373.934 678.76 376.597C679.427 378.546 679.639 380.621 679.38 382.664C679.026 385.456 677.309 388.048 673.973 391.184C670.637 394.319 665.763 397.927 659.215 402.772L514.238 510.052C509.152 513.815 506.725 515.599 503.964 516.217C502.931 516.449 501.874 516.558 500.815 516.542C497.986 516.5 495.245 515.25 489.499 512.603L82.2491 325.075C74.4325 321.476 68.6114 318.794 64.5051 316.283C60.3967 313.771 58.1053 311.486 57.2213 308.729C56.5759 306.716 56.4123 304.579 56.7437 302.491C57.1977 299.631 59.1147 297.025 62.7927 293.916C66.4689 290.809 71.8141 287.273 78.9917 282.526Z" stroke="black"/>
<g id="Rectangle_2" filter="url(#filter1_d)">
<path d="M49.9769 287.574L230.801 167.977C235.79 164.677 238.17 163.114 240.815 162.613C241.806 162.425 242.815 162.349 243.823 162.385C246.512 162.484 249.1 163.671 254.529 166.184L705.014 374.685C712.406 378.107 717.909 380.654 721.81 383.051C725.711 385.447 727.917 387.638 728.829 390.302C729.495 392.25 729.707 394.325 729.448 396.368C729.094 399.161 727.377 401.753 724.041 404.888C720.705 408.024 715.831 411.632 709.283 416.477L541.184 540.867C536.098 544.63 533.671 546.413 530.91 547.032C529.876 547.263 528.819 547.372 527.76 547.357C524.931 547.315 522.191 546.064 516.444 543.418L53.2345 330.123C45.4179 326.524 39.5967 323.842 35.4903 321.331C31.382 318.819 29.0905 316.534 28.2065 313.777C27.5611 311.764 27.3975 309.627 27.729 307.539C28.1829 304.679 30.0999 302.073 33.778 298.964C37.4542 295.857 42.7993 292.321 49.9769 287.574Z" stroke="black"/>
</g>
</g>
</g>
<defs>
<filter id="filter0_d" x="176.236" y="126.457" width="487.615" height="358.152" filterUnits="userSpaceOnUse" color-interpolation-filters="sRGB">
<feFlood flood-opacity="0" result="BackgroundImageFix"/>
<feColorMatrix in="SourceAlpha" type="matrix" values="0 0 0 0 0 0 0 0 0 0 0 0 0 0 0 0 0 0 127 0"/>
<feOffset dx="-62" dy="84"/>
<feGaussianBlur stdDeviation="2"/>
<feColorMatrix type="matrix" values="0 0 0 0 0 0 0 0 0 0 0 0 0 0 0 0 0 0 0.15 0"/>
<feBlend mode="normal" in2="BackgroundImageFix" result="effect1_dropShadow"/>
<feBlend mode="normal" in="SourceGraphic" in2="effect1_dropShadow" result="shape"/>
</filter>
<filter id="filter1_d" x="0.725342" y="6.88902" width="761.564" height="728.719" filterUnits="userSpaceOnUse" color-interpolation-filters="sRGB">
<feFlood flood-opacity="0" result="BackgroundImageFix"/>
<feColorMatrix in="SourceAlpha" type="matrix" values="0 0 0 0 0 0 0 0 0 0 0 0 0 0 0 0 0 0 127 0"/>
<feOffset dy="14"/>
<feGaussianBlur stdDeviation="7"/>
<feColorMatrix type="matrix" values="0 0 0 0 0 0 0 0 0 0 0 0 0 0 0 0 0 0 0.1 0"/>
<feBlend mode="normal" in2="BackgroundImageFix" result="effect1_dropShadow"/>
<feBlend mode="normal" in="SourceGraphic" in2="effect1_dropShadow" result="shape"/>
</filter>
</defs>
</svg>
