<svg width="488" height="325" fill="none" xmlns="http://www.w3.org/2000/svg"><path d="M127.159 211.593l-1.339.86 1.355.834 57.705 35.494.558.344.538-.375 153.545-106.984 1.344-.937-1.447-.767-54.694-28.996-.517-.274-.492.316-156.556 100.485zM211.458 256.587l-1.339.859 1.355.834 57.705 35.495.559.343.537-.375 153.546-106.984 1.344-.936-1.448-.768-54.694-28.995-.517-.274-.492.316-156.556 100.485zM432.818 207.409l-100.77 73.946c-6.755 4.958-5.715 15.342 1.888 18.853l32.063 14.808a11.004 11.004 0 0 0 11.41-1.339l96.361-75.703c6.432-5.054 5.301-15.106-2.094-18.596l-27.653-13.05a11.005 11.005 0 0 0-11.205 1.081z" stroke="#87A330" stroke-width="2"/><path d="M369.74 290.431s-4.309-9.912-2.019-13.292c2.604-3.847 8.291 3.308 12.72 2.29 7.235-1.664 4.997-11.781 10.635-16.365 5.809-4.723 16.264-1.53 18.126-6.545 1.863-5.014 11.894-13.017 11.894-13.017s9.288-.557 16.477-5.058M188.69 153.264c10.422-14.942 12.408-27.498 8.858-39.716-3.517-12.104-12.441-23.755-23.463-36.981-11.218-13.463-36.78-28.424-64.342-34.582-27.571-6.16-57.507-3.58-77.175 18.559-9.752 10.978-14.54 21.089-15.844 30.377-1.306 9.298.893 17.667 4.924 25.125 6.951 12.861 19.44 23.14 28.96 30.974 1.46 1.203 2.852 2.348 4.143 3.436 5.065 4.27 14.681 8.409 26.432 11.774 11.794 3.377 25.877 6.013 39.99 7.206 14.106 1.192 28.29.946 40.268-1.469 11.947-2.409 21.886-7.014 27.249-14.703z" stroke="#87A330" stroke-width="2"/><path d="M115.137 112.887c8.057-4.449 10.925-12.323 10.377-20.518-.547-8.16-4.469-16.746-10.122-22.967-12.606-13.875-34.99-13.434-47.968-.024-11.756 12.149-13.106 30.086-2.418 43.263 6.27 7.73 15.045 9.889 24.075 9.075 9.001-.812 18.358-4.578 26.056-8.829z" stroke="#87A330" stroke-width="2"/><path d="M135.681 170.691l-.776.629.284.348.449.02.043-.997zm0 0l-.042.997.002.001h.006l.022.001.087.003.332.011c.29.009.715.02 1.26.028 1.089.016 2.657.02 4.578-.026 3.841-.092 9.104-.385 14.788-1.19 5.68-.804 11.809-2.123 17.37-4.281 5.552-2.154 10.608-5.17 14.059-9.412 5.017-6.166 7.427-15.903 8.605-23.937a113.78 113.78 0 0 0 1.021-10.368 97.902 97.902 0 0 0 .131-4.015l.001-.227-.001-.059v-.021l-1.001.002 1.001-.003-.003-.707-.67-.233-42.927-14.898-.08-.028-.083-.014-.164.985.163-.985h-.002l-.005-.001-.017-.003-.067-.011-.252-.039a82.299 82.299 0 0 0-4.397-.521c-2.876-.264-6.798-.486-10.968-.313-4.162.174-8.617.742-12.537 2.083-3.915 1.34-7.396 3.485-9.455 6.878-2.807 4.624-3.355 8.92-2.932 13.321.278 2.894.991 5.904 1.739 9.063a171.05 171.05 0 0 1 1.069 4.708c1.555 7.478 6.241 15.962 10.469 22.509a149.708 149.708 0 0 0 5.65 8.126 126.592 126.592 0 0 0 2.295 2.983l.132.164.034.043.009.011.003.003.001.001.776-.629z" stroke="#87A330" stroke-width="2"/></svg>