<svg width="858" height="811" viewBox="0 0 858 811" fill="none" xmlns="http://www.w3.org/2000/svg">
<path d="M47.1169 329.13L259.266 188.816C264.255 185.516 266.635 183.952 269.28 183.451C270.271 183.263 271.28 183.187 272.288 183.224C274.977 183.322 277.566 184.51 282.994 187.022L801.819 427.156C809.211 430.577 814.714 433.125 818.615 435.521C822.516 437.918 824.722 440.109 825.633 442.772C826.3 444.721 826.512 446.796 826.253 448.839C825.899 451.631 824.182 454.223 820.846 457.359C817.51 460.494 812.635 464.102 806.088 468.947L608.848 614.9C603.763 618.664 601.335 620.447 598.574 621.065C597.541 621.297 596.484 621.406 595.425 621.39C592.596 621.348 589.856 620.098 584.109 617.451L50.3742 371.68C42.5577 368.08 36.7366 365.399 32.6303 362.888C28.5219 360.375 26.2305 358.091 25.3465 355.334C24.7011 353.32 24.5375 351.184 24.869 349.096C25.3229 346.236 27.2399 343.629 30.9179 340.521C34.5941 337.414 39.9393 333.878 47.1169 329.13Z" stroke="black"/>
<path d="M80.089 323.398L263.993 201.764C268.983 198.464 271.363 196.901 274.007 196.4C274.998 196.212 276.007 196.135 277.015 196.172C279.705 196.271 282.293 197.458 287.722 199.971L744.929 411.585C752.321 415.006 757.824 417.554 761.725 419.95C765.626 422.347 767.832 424.538 768.743 427.201C769.409 429.149 769.621 431.225 769.362 433.267C769.009 436.06 767.291 438.652 763.955 441.788C760.619 444.923 755.745 448.531 749.197 453.376L578.232 579.887C573.146 583.65 570.719 585.434 567.958 586.052C566.925 586.283 565.868 586.392 564.809 586.377C561.979 586.335 559.239 585.084 553.493 582.438L83.3463 365.947C75.5298 362.348 69.7086 359.667 65.6024 357.156C61.494 354.643 59.2026 352.359 58.3186 349.601C57.6732 347.588 57.5096 345.451 57.841 343.364C58.295 340.504 60.212 337.897 63.89 334.789C67.5662 331.682 72.9114 328.145 80.089 323.398Z" stroke="black"/>
</svg>
