<svg width="663" height="564" viewBox="0 0 663 564" fill="none" xmlns="http://www.w3.org/2000/svg">
<path d="M457.233 114.594L432.183 108.443L414.494 104.43L399.763 102.124L387.845 100.316L375.228 99.2303L365.334 98.3084L358.832 98.7108M457.233 114.594L475.848 121.396L494.842 128.276L514.749 137.233L518.725 139.384M457.233 114.594L442.696 116.345L433.925 114.944C433.925 114.944 425.006 113.349 419.251 113.516C414.63 113.651 407.515 115.053 407.515 115.053L379.158 113.898M548.587 158.179L552.281 161.298L559.124 157.499L563.031 153.415M548.587 158.179L542.026 153.327M548.587 158.179L538.97 156.289L525.025 150.915L508.276 143.077L487.214 135.143L474.65 132.257L454.68 127.068L436.515 124.611C436.515 124.611 429.253 123.541 424.564 123.347C417.209 123.042 405.747 124.459 405.747 124.459L392.589 126.02M563.031 153.415L566.618 150.132M563.031 153.415L562.1 155.272L561.969 157.451L562.594 159.785L563.752 161.439L566.02 161.904L567.52 161.502L570.199 161.498L571.419 159.385L571.94 157.995L571.449 156.162L570.6 152.995L570.198 151.495L568.174 150.608L566.618 150.132M566.618 150.132L571.618 148.792M566.618 150.132L568.662 140.652L570.051 130.276L572.627 119.224L574.347 106.973L574.521 94.9568M571.618 148.792L573.837 136.407L576.586 120.664L577.514 106.124L579.006 90.3608L579.205 79.7676L579.526 68.9631L579.635 58.0365L580.072 51.6669L581.024 48.5535L579.907 44.3866L578.344 38.5529L579.237 31.8826L579.674 25.513L577.843 18.6792L574.19 13.0481L570.886 10.7178L566.15 10.3789C566.15 10.3789 562.828 11.6351 561.385 13.2635C560.279 14.5125 559.356 17.0229 559.356 17.0229L555.674 24.6191L553.005 32.6587L551.235 39.3856L547.676 46.7705L546.072 53.4527L542.903 61.6263L540.966 68.3979L537.016 74.994C537.016 74.994 534.37 78.6085 533.523 81.2895C532.674 83.9744 533.475 85.7351 532.764 88.4598C532.05 91.1993 530.891 92.4678 529.904 95.1213C528.607 98.6095 528.137 100.656 527.17 104.25C526.019 108.53 524.593 115.302 524.593 115.302L522.448 124.63L520.291 133.247L518.725 139.384M571.618 148.792L575.589 150.944M571.618 148.792L575.936 144.241L580.234 140.945L583.011 139.308L585.999 137.793L589.654 136.099L593.72 133.938L598.208 132.02L601.863 130.326L606.351 128.409L609.84 126.76L614.661 124.753L619.162 123.548L623.317 121.72L624.15 121.496M518.725 139.384L524.467 142.49M524.467 142.49L530.209 145.596L539.898 151.753L542.026 153.327M524.467 142.49C524.467 142.49 527.03 139.33 527.887 136.929C528.678 134.712 528.791 130.97 528.791 130.97L529.948 122.621C529.948 122.621 530.83 116.736 532.26 113.248C533.689 109.764 535.746 108.439 537.186 104.961C539.087 100.366 537.884 97.1003 539.738 92.4863C540.876 89.6553 542.181 88.3845 543.432 85.6015C545.063 81.9703 545.322 79.6789 546.744 75.9605C547.928 72.8636 548.622 71.1351 550.002 68.1203C551.314 65.2556 553.606 60.9021 553.606 60.9021L557.739 50.3265L562.385 40.3282L566.209 31.2646C566.209 31.2646 565.916 22.2275 569.455 22.713C571.784 23.0326 573.834 24.8375 573.507 27.1654C573.347 28.2979 572.503 28.6546 572.042 29.7015C570.738 32.669 572.697 35.0766 571.219 37.9612C570.518 39.3286 569.292 39.6287 568.844 41.0985C568.156 43.3546 570.547 44.5778 570.407 46.9322C570.286 48.9659 568.69 51.8584 568.69 51.8584L573.407 46.1283C573.407 46.1283 574.718 45.3585 575.574 45.5477C577.219 45.9116 576.69 49.7147 576.69 49.7147L575.774 54.9622L573.354 57.9329L568.23 62.1417L564.852 67.5356L563.858 73.1612L558.385 78.7366L557.099 81.9393L561.552 77.888L565.593 74.304L567.912 70.2886L569.352 66.3298C569.352 66.3298 571.271 64.9755 572.352 65.5259C573.553 66.1375 573.245 68.8594 573.245 68.8594C573.245 68.8594 576.329 72.8259 574.719 74.3598C573.841 75.1964 571.719 75.1637 571.719 75.1637L567.933 79.0363L567.871 82.8045L566.032 87.942L561.69 91.0706L560.314 93.9388C560.314 93.9388 557.219 94.7115 556.782 96.3158C556.446 97.5512 557.63 99.4827 557.63 99.4827L554.336 104.296C554.336 104.296 554.237 106.37 555.095 107.129C556.649 108.503 558.613 103.15 558.613 103.15L561.521 98.4403L562.672 94.7375L565.839 93.889L568.19 89.3289L569.032 87.1381C569.032 87.1381 568.877 82.1546 571.038 81.956C572.275 81.8422 573.907 83.3308 573.907 83.3308L575.024 87.4978L574.521 94.9568M574.521 94.9568L572.337 99.4722C572.337 99.4722 569.588 101.677 568.429 103.556C567.233 105.497 566.513 109.072 566.513 109.072L564.385 114.465L560.359 121.439L557.222 129.068L553.05 134.831L549.377 140.46C549.377 140.46 545.393 144.219 543.883 147.291C542.796 149.505 542.026 153.327 542.026 153.327M420.709 180.296C418.431 180.906 414.875 181.859 414.875 181.859C414.875 181.859 410.98 179.801 408.702 178.154C406.021 176.215 402.37 172.526 402.37 172.526L404.379 170.022L399.075 168.228L384.287 155.041L362.245 136.115L346.656 122.607L337.009 113.937C337.009 113.937 329.935 110.904 330.832 107.553C331.34 105.655 334.329 103.937 334.329 103.937L342.829 101.659L352.33 99.1132L358.832 98.7108M420.709 180.296C421.748 177.924 423.369 174.224 423.369 174.224M420.709 180.296C418.438 181.726 417.271 182.833 415.724 185.026C414.485 186.782 413.295 189.964 413.295 189.964L417.912 193.193C417.912 193.193 418.538 195.529 418.939 197.026C419.463 198.979 420.638 200.037 420.279 202.027C419.739 205.024 414.294 207.025 414.294 207.025L410.687 211.564L416.125 213.858C416.125 213.858 419.389 215.463 420.62 217.299C421.858 219.146 422.094 222.799 422.094 222.799L419.966 228.193L415.228 235.179L421.395 233.526C421.395 233.526 426.693 231.882 428.809 233.862C430.532 235.473 430.373 239.696 430.373 239.696L431.623 244.363L427.727 249.158L420.632 255.347L415.023 259.083L409.414 262.819M409.414 262.819L403.388 270.329M409.414 262.819L416.582 260.898L424.879 256.531L430.713 254.968L436.214 253.494L440.583 254.467L445.387 256.395L446.682 261.229L444.067 267.468L441.305 272.495L448.067 266.396L449.641 262.937L453.183 259.487L458.016 258.192C458.016 258.192 462.333 257.379 463.642 259.186C464.314 260.113 464.401 262.019 464.401 262.019L465.473 266.019L466.232 268.853C466.232 268.853 466.101 271.541 467.215 272.52C468.885 273.988 471.104 272.578 472.715 271.046C474.073 269.755 474.566 266.62 474.566 266.62L476.807 262.982L475.735 258.982L480.015 259.622L481.998 263.021L483.383 268.188C483.383 268.188 482.662 270.173 483.142 271.289C483.909 273.075 485.989 273.424 487.857 272.884C489.67 272.359 490.158 270.892 490.976 269.19L491.883 265.91L490.141 259.409L491.736 254.695L495.642 257.936L503.311 248.556L508.623 238.379M403.388 270.329L396.471 277.184L397.23 280.017L398.419 276.662L401.638 275.799L403.388 270.329ZM508.623 238.379L512.804 230.649C512.804 230.649 514.812 224.781 516.962 221.496C518.794 218.697 522.545 214.998 522.545 214.998L527.816 207.333M508.623 238.379C508.623 238.379 503.589 242.153 501.123 240.389C499.095 238.939 501.168 236.048 499.47 234.222C497.965 232.603 494.243 232.05 494.243 232.05L492.231 231.874C492.231 231.874 486.906 232.274 485.126 230.026C483.955 228.547 485.09 226.804 483.876 225.36C481.677 222.745 475.128 225.381 475.128 225.381C475.128 225.381 471.586 227.91 469.628 226.855C467.551 225.736 468.065 221.021 468.065 221.021L466.636 215.688L461.302 217.117L458.468 217.876L457.709 215.042L460.096 212.616L455.789 207.875L457.461 202.783L461.857 197.853L460.651 193.353C460.651 193.353 455.373 194.102 454.513 191.782C453.811 189.886 456.442 186.978 456.442 186.978L459.248 182.117C459.248 182.117 459.037 179.371 458.132 177.95C456.312 175.096 453.332 175.555 450.003 174.947C445.595 174.143 440.994 179.268 438.543 175.517C437.659 174.163 437.472 171.517 437.472 171.517L433.408 166.353L432.381 162.519L429.41 160.1L424.81 156.598M527.816 207.333L525.748 216.284L523.412 224.234L523.559 235.449C523.559 235.449 522.608 243.67 526.238 245.45C530.65 247.613 535.855 237.335 535.855 237.335L539.625 230.072L544.14 222.253M527.816 207.333L530.375 200.216L536.101 192.251L540.95 185.682M544.14 222.253L545.218 217.944M544.14 222.253L548.887 223.303M552.984 200.59L548.799 205.641L546.297 213.636L545.218 217.944M552.984 200.59L558.264 200.961M552.984 200.59L545.807 194.474L542.268 190.599L540.95 185.682M558.264 200.961L552.547 206.959C552.547 206.959 549.903 210.666 548.297 213.1C547.063 214.971 545.218 217.944 545.218 217.944M558.264 200.961L566.75 205.297C566.75 205.297 573.034 209.8 574.308 214.169C575.146 217.041 574.395 221.828 574.395 221.828L577.522 233.495M558.264 200.961L566.446 192.159M545.218 217.944L548.887 223.303M548.887 223.303C548.887 223.303 553.097 228.619 555.856 231.976C557.789 234.328 560.854 237.961 560.854 237.961L548.887 223.303ZM566.446 192.159L571.048 202.002L575.082 210.389C575.082 210.389 578.221 218.041 580.232 222.943M566.446 192.159C566.446 192.159 574.848 210.921 580.232 222.943M566.446 192.159C566.446 192.159 578.158 194.594 585.599 193.637C590.478 193.009 597.767 190.377 597.767 190.377M566.446 192.159L572.05 184.405M580.232 222.943C580.366 226.047 580.575 230.89 580.575 230.89M597.767 190.377C597.767 190.377 601.49 197.378 603.238 202.13C605.146 207.316 606.901 215.797 606.901 215.797M597.767 190.377C597.767 190.377 595.891 188.21 594.406 187.168C589.941 184.036 586.008 185.749 580.586 185.155C577.26 184.79 572.05 184.405 572.05 184.405M572.05 184.405L573.629 176.3L573.31 169.776L571.971 164.775L576.622 160.135M576.622 160.135L578.286 157.009L578.125 152.408L575.589 150.944M576.622 160.135L577.956 159.777L579.021 158.42L580.087 157.063L580.095 155.095L579.47 152.762L579.113 151.428L577.589 150.408L575.365 150.11L575.589 150.944M624.15 121.496L626.983 120.737L629.216 119.067L631.18 116.397L631.388 113.84L630.807 111.674L629.974 111.897L629.754 113.742L629.2 115.677L628.68 117.067L626.715 119.737L624.15 121.496ZM358.832 98.7108L364.394 102.133L369.591 107.529L372.675 111.705L379.158 113.898M379.158 113.898C379.158 113.898 379.312 115.989 380.007 117.065C381.04 118.666 384.233 119.505 384.233 119.505L388.749 121.689L392.589 126.02M392.589 126.02L397.396 130.627L402.638 136.188M402.638 136.188L405.844 140.154L410.66 142.793L416.67 149.222L420.21 153.097L424.81 156.598M402.638 136.188C402.638 136.188 409.938 133.639 414.805 132.928C423.008 131.729 427.797 132.869 436.004 134.037C440.301 134.649 442.816 134.706 446.922 136.114C451.971 137.845 458.879 142.736 458.879 142.736C458.879 142.736 465.161 144.645 469.186 145.869M469.186 145.869C475.143 148.308 478.692 149.317 485.042 150.374C491.201 151.399 494.964 149.697 501.005 151.277C506.648 152.753 508.897 156.064 514.507 157.664C519.357 159.047 527.303 159.416 527.303 159.416L536.696 160.472L547.947 162.459C547.947 162.459 545.966 166.227 544.364 168.421C542.877 170.459 540.135 173.306 540.135 173.306M469.186 145.869C463.693 147.759 460.695 149.075 455.12 150.71C446.705 153.178 441.852 154.185 433.184 155.516C429.925 156.016 424.81 156.598 424.81 156.598M540.135 173.306L539.633 180.765M540.135 173.306L534.685 170.3L522.252 165.235L507.896 160.328C507.896 160.328 492.75 155.74 482.837 156.145C475.147 156.46 471.159 159.104 463.523 160.07C456.837 160.916 446.296 161.113 446.296 161.113M540.135 173.306L533.406 173.858L517.946 170.498L501.108 172.33C501.108 172.33 490.392 173.786 483.526 174.718M540.135 173.306C540.135 173.306 534.322 178.773 529.979 181.386C524.627 184.606 515.131 187.33 515.131 187.33L493.958 197.648M539.633 180.765L540.95 185.682M539.633 180.765L534.783 187.334C534.783 187.334 529.529 195.115 525.806 199.833C521.684 205.056 518.987 207.665 514.595 212.662C510.325 217.519 509.864 223.359 503.628 225.069C500.154 226.022 497.43 226.647 494.412 224.68C491.674 222.895 491.126 220.548 490.313 217.382C489.533 214.342 489.931 212.462 490.304 209.346C490.872 204.594 493.958 197.648 493.958 197.648M467.096 173.404C467.096 173.404 477.11 174.205 483.526 174.718M483.526 174.718C480.566 178.511 476.775 179.692 475.946 184.431C475.203 188.679 475.934 191.879 478.804 195.098C482.798 199.578 493.958 197.648 493.958 197.648" stroke="black" stroke-dasharray="2 2"/>
<path d="M15.2688 523.877L1.40064 525.021L0.481327 533.767L20.8832 531.973L41.0914 529.192L55.8416 528.142L79.2453 526.069L98.0302 524.104L102.22 524.545L115.19 522.044L118.49 521.053L123.341 521.563L127.237 521.972L136.447 521.305L142.718 520.329L148.818 520.971L165.39 518.848L181.827 517.306L201.273 515.411L221.37 512.99L237.651 510.094L256.374 505.894L272.219 503.621L288.199 500.767L289.219 491.065L282.542 492.37L271.583 494.116L261.645 496.044L247.646 498.437L230.408 501.233L216.188 503.602L204.661 504.397L196.417 505.76L186.769 507.05L176.607 508.285L154.159 510.459L137.359 512.632L117.32 513.796L94.0598 515.215L77.2555 516.719L67.6504 518.31L56.7223 519.763L45.562 520.596L35.659 521.487L28.696 522.688L15.2688 523.877Z" fill="url(#paint0_linear)" fill-opacity="0.82"/>
<path d="M39.8065 525.861L37.2759 521.657L35.6703 520.671L34.7726 519.313L35.9639 517.878L35.1821 515.417L35.5374 512.036L36.9682 508.322L36.5927 506.945L37.2772 505.382L37.4858 503.398L37.7098 501.266L38.839 499.007L39.8639 497.034L41.4961 495.645L42.7415 493.695L43.7974 492.84L45.0003 492L46.3 490.948L47.4952 490.182L48.4505 488.87L49.8236 487.825L52.3882 486.757L53.595 485.881L55.7574 485.105L57.2195 483.921L58.2522 483.286L59.9542 482.648L61.8264 481.804L64.043 481.22L65.66 481.39L66.2365 482.268L67.0565 481.536L68.6811 480.221L70.1511 480.375L71.9151 480.561L73.5591 479.768L75.0291 479.922L76.4409 478.51L77.644 479.082L79.6787 478.107L81.5586 477.19L83.4076 476.567L85.3921 476.775L87.3959 476.094L89.5274 476.318L91.512 476.527L93.864 476.774L95.4075 476.936L96.5562 475.199L97.9797 474.383L100.401 473.968L102.316 473.427L103.979 473.155L106.304 472.954L107.921 473.124L110.494 473.394L112.331 473.587L114.389 473.804L115.217 472.999L116.389 472.453L118.362 472.066L120.486 471.658L123.53 470.974L126.103 471.245L128.602 471.508L130.586 471.716L131.781 470.95L133.248 470.435L134.818 469.634L136.362 469.796L138.93 469.398L140.698 468.84L142.241 469.003L143.553 467.134L146.523 465.737L149.308 464.692L151.469 463.581L153.629 462.471L154.898 460.3L157.694 458.439L160.943 457.22L162.742 455.663L164.541 454.106L167.655 453.467L169.438 452.762L171.14 452.124L173.573 450.893L175.19 451.063L176.942 450.653L179.047 450.428L181.182 449.91L183.093 450.11L185.197 449.886L186.741 450.048L187.944 450.62L189.341 450.767L190.169 451.374L192.447 451.614L193.774 452.422L195.318 452.584L197.02 453.358L198.343 453.497L200.161 454.58L201.558 456.138L202.688 458.115L204.672 458.324L206.564 459.414L207.698 460.648L208.572 462.226L209.66 463.901L211.718 464.117L212.492 465.239L213.084 467.382L214.562 468.875L216.74 470.07L217.278 471.316L217.967 473.246L219.321 474.503L221.012 476.093L222.726 477.462L224.343 479.044L225.128 480.761L225.556 482.701L225.984 484.641L225.266 485.457L223.915 488.065L223.668 490.417L222.272 493.094L220.021 496.127L216.733 499.126L213.418 501.676L209.902 503.313L206.382 504.28L204.177 504.049L201.898 503.809L200.815 502.803L201.07 500.378L201.209 499.055L199.747 500.239L198.43 501.104L198.583 502.123L199.272 504.053L199.643 506.173L200.189 508.757L198.769 507.419L197.071 505.903L195.821 504.359L194.618 502.375L193.345 501.052L192.099 500.178L190.672 501.737L191.705 503.927L191.558 505.323L192.742 506.785L194.015 508.108L195.149 510.754L196.275 513.473L193.644 511.636L191.033 510.321L189.385 509.033L187.988 507.475L185.898 504.728L186.045 503.332L185.197 503.243L186.308 500.833L184.915 501.355L185.116 499.444L183.422 500.009L184.111 501.94L183.987 503.116L182.297 504.35L182.642 507.433L182.433 509.417L183.045 512.083L182.902 514.149L182.581 516.493L181.8 515.445L180.391 513.29L179.509 513.197L178.708 511.627L178.135 510.006L176.448 507.674L176.375 506.254L176.057 505.032L175.535 503.639L177.128 501.206L177.399 498.633L176.536 500.475L175.682 502.243L173.991 503.477L172.301 503.299L170.463 503.106L168.842 502.267C168.836 503.034 168.617 504.829 167.794 505.872L167.586 507.857L166.596 508.793L165.137 509.235L162.565 508.964L160.507 508.748L158.878 507.982L157.369 506.783L155.644 507.642L154.379 509.07L154.225 510.54L153.447 511.573L152.032 512.316L151.862 513.933L151.119 515.341L150.311 516.668L148.825 518.073L146.698 518.518L144.272 518.263L142.137 517.37L140.609 515.648L139.432 514.113L138.778 512.558L137.084 511.711L136.132 512.28L134.287 513.572L132.682 515.41L132.311 518.938L131.077 520.071L129.325 521.894L126.343 522.695L123.372 521.268L122.257 519.144L121.213 517.771L119.723 515.683L120.101 512.081L116.659 513.726L113.255 515.003L113.054 516.914L112.714 520.148L109.322 522.021L105.426 521.611L103.085 519.136L101.677 516.981L100.098 513.62L97.9126 515.322L94.6207 516.24L93.3831 518.116L91.3257 522.136L88.8503 524.477L85.9102 524.168L82.6525 521.224L80.9501 519.039L79.1973 516.625L79.5372 513.391L75.6692 516.254L71.9094 518.089L68.0138 517.679L65.0115 515.134L61.9132 517.038L59.4261 518.783L56.192 518.443L55.9216 521.016L55.6512 523.588L52.6692 527.213L47.8844 529.609L43.4008 529.137L39.8065 525.861Z" fill="#F5FAF6"/>
<path d="M56.192 518.443L55.9216 521.016L55.6512 523.588L52.6693 527.213L47.8844 529.609L43.4008 529.137L39.8065 525.861L37.2759 521.657L35.6703 520.671L34.7726 519.313L35.9639 517.878M56.192 518.443L59.4261 518.783L61.9132 517.038L65.0115 515.134M56.192 518.443L56.4006 516.459L54.0598 513.983L52.8372 512.889L49.9161 510.278L47.761 507.45L44.9094 504.178M65.0115 515.134L68.0138 517.679L71.9094 518.089L75.6692 516.254L79.5372 513.391M65.0115 515.134L65.3514 511.9M79.5372 513.391L79.1973 516.625L80.9501 519.039L82.6525 521.224L85.9102 524.168L88.8503 524.477L91.3257 522.136L93.3831 518.116L94.6207 516.24L97.9126 515.322L100.098 513.62M79.5372 513.391L80.7671 511.588L79.9698 509.275L80.1166 507.878L78.677 504.606M100.098 513.62L101.677 516.981L103.085 519.136L105.426 521.611L109.322 522.021L112.714 520.148L113.054 516.914L113.255 515.003L116.659 513.726M100.098 513.62L101.359 510.111L100.896 508.502M116.659 513.726L120.101 512.081M116.659 513.726L114.075 512.86L112.31 511.262L109.772 509.955M120.101 512.081L119.723 515.683L121.213 517.771L122.257 519.144L123.372 521.268L126.343 522.695L129.325 521.894L131.077 520.071L132.311 518.938L132.682 515.41L134.287 513.572L136.132 512.28L137.084 511.711M120.101 512.081L122.016 510.127L120.426 508.994L119.752 506.917M137.084 511.711L138.778 512.558L139.432 514.113L140.609 515.648L142.137 517.37L144.272 518.263L146.698 518.518L148.825 518.073L150.311 516.668L151.119 515.341L151.862 513.933L152.032 512.316L153.447 511.573L154.225 510.54L154.379 509.07L155.644 507.642L157.369 506.783M137.084 511.711L138.054 508.84L138.309 506.415L137.036 503.68L137.322 500.96L134.443 498.651L134.783 495.417L133.889 493.317L132.755 489.259L131.625 485.871L130.669 481.534L129.953 477.743L130.285 474.583L130.586 471.716M157.369 506.783L158.878 507.982L160.507 508.748L162.565 508.964L165.137 509.235L166.596 508.793L167.586 507.857L167.794 505.872C168.617 504.829 168.836 503.034 168.842 502.267M157.369 506.783L156.015 504.114L154.513 501.43L152.942 497.995L151.375 493.817L149.587 491.028L147.502 487.539L145.83 482.236L143.349 476.848L142.935 473.014L142.241 469.003M168.842 502.267L170.463 503.106L172.301 503.299L173.991 503.477L175.682 502.243L176.536 500.475L177.399 498.633M168.842 502.267L168.521 498.963L166.59 495.416L165.328 491.865L164.132 486.983L161.559 482.477M177.399 498.633L177.128 501.206L175.535 503.639L176.057 505.032L176.375 506.254L176.448 507.674L178.135 510.006L178.708 511.627L179.509 513.197L180.391 513.29L181.8 515.445L182.581 516.493L182.902 514.149L183.045 512.083L182.433 509.417L182.642 507.433L182.297 504.35L183.987 503.116L184.111 501.94L183.422 500.009L185.116 499.444L184.915 501.355L186.308 500.833L185.197 503.243M177.399 498.633L178.365 495.093L178.225 490.768L178.36 487.364M184.575 504.589L185.197 503.243M185.197 503.243L186.045 503.332L185.898 504.728L187.988 507.475L189.385 509.033L191.033 510.321L193.644 511.636L196.275 513.473L195.149 510.754L194.015 508.108L192.742 506.785L191.558 505.323L191.705 503.927L190.672 501.737L192.099 500.178L193.345 501.052L194.618 502.375L195.821 504.359L197.071 505.903L198.769 507.419L200.189 508.757L199.643 506.173L199.272 504.053L198.583 502.123L198.43 501.104M225.266 485.457L224.549 486.274L222.859 487.508L220.801 488.704L218.743 489.899L216.066 491.327L212.128 492.028L208.697 492.856L206.639 492.64L205.274 493.611L204.144 494.459L202.74 495.797L200.156 496.343L198.044 496.641L195.251 496.348L195.112 497.671L196.508 497.818L197.828 498.699L198.277 500.084L198.43 501.104M225.266 485.457L225.984 484.641L225.556 482.701L225.128 480.761L224.343 479.044M225.266 485.457L223.915 488.065L223.668 490.417L222.272 493.094L220.021 496.127L216.733 499.126L213.418 501.676L209.902 503.313L206.382 504.28L204.177 504.049L201.898 503.809L200.815 502.803L201.07 500.378L201.209 499.055M201.209 499.055L199.747 500.239L198.43 501.104M201.209 499.055L198.43 501.104M224.343 479.044L222.726 477.462L221.012 476.093L219.321 474.503L217.967 473.246M224.343 479.044L223.492 481.481L221.411 482.897L219.276 484.828L218.077 486.337L214.948 487.122L212.569 487.838L209.996 488.98L208.159 487.375L207.303 486.319L209.601 484.257L211.338 483.993L213.179 482.032L215.79 479.111L217.58 476.921L217.967 473.246M217.967 473.246L217.278 471.316L216.74 470.07L214.562 468.875M214.562 468.875L213.084 467.382M214.562 468.875L215.692 472.264L213 473.839L212.729 476.411L211.186 477.661L210.923 480.16L208.452 484.582L203.528 488.3L206.34 483.468L209.032 479.069L210.721 473.599L213.084 467.382M213.084 467.382L212.492 465.239L211.718 464.117L209.66 463.901M209.66 463.901L208.572 462.226L207.698 460.648L206.564 459.414L204.672 458.324L202.688 458.115L201.558 456.138M209.66 463.901L209.436 466.033L207.947 468.18L208.918 470.957L207.414 473.251L205.967 477.112L202.301 480.889L198.769 482.672L197.62 478.762L197.952 475.601L200.578 472.533L200.972 468.784L201.575 463.051L201.558 456.138M201.558 456.138L200.161 454.58L198.343 453.497M198.343 453.497L197.02 453.358L195.318 452.584L193.774 452.422L192.447 451.614L190.169 451.374L189.341 450.767M198.343 453.497L198.011 456.657L197.547 461.067L197.06 465.698L195.004 472.542L192.452 479.853L190.151 486.894L189.287 481.676L189.944 475.428L190.616 469.034L190.402 461.877L190.272 454.952L189.341 450.767M189.341 450.767L187.944 450.62L186.741 450.048L185.197 449.886M185.197 449.886L183.093 450.11L181.182 449.91L179.047 450.428L176.942 450.653M185.197 449.886L186.27 454.531L186.278 457.282L186.801 461.498L185.227 464.454L185.104 468.454L186.466 471.05L187.077 473.715L186.683 476.052L186.564 478.603L185.485 480.384L183.311 482.683L182.893 481.004L181.426 478.695L180.435 475.395L180.806 471.867L180.26 469.283L179.475 466.153L178.271 462.757L178.143 459.028L178.606 454.618L176.942 450.653M176.942 450.653L175.19 451.063L173.573 450.893M173.573 450.893L171.14 452.124L169.438 452.762L167.655 453.467M173.573 450.893L173.902 454.123L173.593 457.063L173.276 460.077L173.908 463.265L174.225 467.311L175.746 470.518L177.151 473.415L178.362 476.738L179.024 481.043L178.684 484.277L178.36 487.364M167.655 453.467L164.541 454.106L162.742 455.663M167.655 453.467L168.081 456.484L168.719 459.598L170.012 462.855L171.169 465.28L170.852 468.294L172.133 470.955L173.7 472.309L175.221 475.516L176.134 478.138L176.332 481.206L176.038 483.999L178.36 487.364M157.694 458.439L160.943 457.22L162.742 455.663M157.694 458.439L154.898 460.3L153.629 462.471M157.694 458.439L157.47 460.571L158.453 463.944L159.901 467.143L161.255 469.812L162.602 472.554L164.122 474.349L165.248 476.362L165.693 479.196L166.41 481.575L169.276 483.288L170.82 483.45L172.657 482.232L172.162 479.876L169.952 476.857L168.822 474.174L167.576 470.476L166.767 468.979L165.018 465.823L165.381 462.368L164.015 459.104L162.742 455.663M153.629 462.471L151.469 463.581M153.629 462.471L152.183 466.332L153.855 470.223L155.43 474.327L157.04 477.395L158.541 480.079L161.559 482.477M149.308 464.692L146.523 465.737L143.553 467.134M149.308 464.692L151.469 463.581M149.308 464.692L149.053 467.118L149.371 469.752L150.488 472.916L151.283 474.895L152.022 477.759L150.9 478.533L150.707 480.371L149.33 480.746L147.887 478.216L146.525 475.621L145.159 472.356L144.075 469.938L143.553 467.134M143.553 467.134L142.241 469.003M142.241 469.003L140.698 468.84L138.93 469.398M138.93 469.398L136.362 469.796L134.818 469.634L133.248 470.435L131.781 470.95M138.93 469.398L138.598 472.558L138.204 476.307L139.609 479.204L140.151 482.531L138.991 485.084L136.883 488.876L134.755 485.085L133.628 480.953L132.599 476.609L131.519 473.449L131.781 470.95M131.781 470.95L130.586 471.716M130.586 471.716L128.602 471.508L126.103 471.245M126.103 471.245L123.53 470.974L120.486 471.658L118.362 472.066M126.103 471.245L124.858 474.607L124.294 479.972L124.805 483.593L124.542 486.092L122.612 488.193L121.537 489.938L119.463 487.045L118.818 482.221L118.707 477.973L118.092 474.639L118.362 472.066M118.362 472.066L116.389 472.453L115.217 472.999L114.389 473.804M114.389 473.804L112.331 473.587M114.389 473.804L114.738 477.556L115.4 481.862L116.229 486.705L116.462 490.148L117.07 493.556M112.331 473.587L110.494 473.394L107.921 473.124M112.331 473.587L111.136 475.766L111.992 476.822L111.798 478.659L111.706 479.541L111.505 481.452L112.631 482.759L112.414 484.817L112.26 486.288L112.121 487.611L112.79 489.019L112.713 489.754L112.574 491.077L113.232 491.889L114.257 492.74L115.526 493.393L117.07 493.556M107.921 473.124L106.304 472.954L103.979 473.155L102.316 473.427L100.401 473.968L97.9797 474.383M107.921 473.124L106.018 475.674L105.874 477.045L107.211 479.886L106.971 482.165L107.857 484.339L107.618 486.617L106.407 487.53L104.628 488.904L103.46 490.119L101.541 488.579L99.9737 485.814L99.5051 482.495L98.5374 478.974L98.8619 475.887L97.9797 474.383M97.9797 474.383L96.5562 475.199L95.4075 476.936M95.4075 476.936L93.864 476.774L91.512 476.527M95.4075 476.936L95.114 479.729L95.4356 483.033L96.5427 488.054L97.2241 491.47L98.1377 495.504L98.5754 499.117L99.1795 503.268M91.512 476.527L89.5274 476.318L87.3959 476.094M91.512 476.527L92.4642 480.194L93.076 484.271L92.7207 487.652L92.4773 489.968L92.234 492.283L94.3154 493.691L95.6466 496.58L95.4148 498.785L96.1812 501.392L99.1795 503.268M87.3959 476.094L85.3921 476.775L83.4076 476.567L81.5586 477.19L79.6787 478.107M87.3959 476.094L87.1023 478.887L86.7624 482.121L87.2891 485.595L86.9955 488.388L84.9145 489.804L83.8548 491.402L81.7467 492.37L80.2453 489.685L80.5929 486.378L79.1843 482.811L79.5551 479.283L79.6787 478.107M79.6787 478.107L77.644 479.082L76.4409 478.51L75.0291 479.922M75.0291 479.922L73.5591 479.768L71.9151 480.561M75.0291 479.922L75.4631 484.278L75.3748 488.653L76.2303 492.533L76.9735 495.361L77.5465 498.393L79.0401 501.151L78.677 504.606M71.9151 480.561L70.1511 480.375L68.6811 480.221L67.0565 481.536M71.9151 480.561L71.6216 483.354L72.8097 486.897L72.5316 489.543L73.7313 492.27L74.6486 495.562L76.6645 498.301L76.3941 500.873L77.0598 503.024L78.677 504.606M67.0565 481.536L66.2365 482.268L65.66 481.39L64.043 481.22L61.8264 481.804L59.9542 482.648M67.0565 481.536L66.7012 484.918L68.0321 486.395L67.6922 489.629L67.5609 490.879L67.3214 493.157L67.1514 494.774L68.4592 496.472L69.9529 499.23L71.396 500.348L73.4776 503.168L74.9015 505.175L73.0605 507.137L73.0494 510.777L74.1599 512.231L71.5991 512.557L68.6473 511.652L67.0223 510.144L67.4009 506.542L67.6249 504.41L64.878 502.264L64.5138 498.659L62.5056 495.847L64.2849 494.473L62.269 491.734L61.0771 488.934L59.653 485.514L59.9542 482.648M59.9542 482.648L58.2522 483.286L57.2195 483.921L55.7574 485.105M55.7574 485.105L53.595 485.881L52.3882 486.757M55.7574 485.105L55.3557 488.927L56.3697 492.006L56.993 495.267L58.2392 498.965L59.787 501.209L61.0098 503.715L58.0229 501.023L55.6667 498.695L54.614 495.983L52.865 492.827L52.1256 489.256L52.3882 486.757M52.3882 486.757L49.8236 487.825L48.4505 488.87L47.4952 490.182L46.3 490.948M46.3 490.948L45.0003 492L43.7974 492.84L42.7415 493.695M46.3 490.948L49.1284 494.441L48.858 497.013L49.6437 500.143L49.497 501.539L51.8221 502.749L54.9791 505.236L57.4049 506.903L59.0067 508.632L58.7981 510.617L54.6006 508.838L51.289 507.821L49.0257 506.023L46.9286 503.35L45.3807 499.694L44.5832 495.969L42.7415 493.695M42.7415 493.695L41.4961 495.645M41.4961 495.645L39.8639 497.034M41.4961 495.645L42.3629 497.296L42.5335 499.915L41.1523 498.916L39.8639 497.034M39.8639 497.034L38.839 499.007L37.7098 501.266M37.7098 501.266L37.4858 503.398L37.2772 505.382M37.7098 501.266L40.6463 503.73L41.8846 506.09L44.33 509.691L41.2968 507.44L37.2772 505.382M37.2772 505.382L36.5927 506.945L36.9682 508.322L35.5374 512.036M35.5374 512.036L35.1821 515.417L35.9639 517.878M35.5374 512.036L38.0252 514.527L39.2867 516.666L39.1244 518.21L35.9639 517.878M65.3514 511.9L63.3473 509.757L61.2387 507.901L65.3514 511.9ZM99.1795 503.268L99.8065 505.08M99.8065 505.08L100.433 506.893L100.896 508.502M99.8065 505.08L97.8801 505.733L100.896 508.502M119.752 506.917L120.069 503.903M119.752 506.917L117.555 505.199L120.069 503.903M120.069 503.903L119.102 501.795M117.07 493.556L117.489 494.863M117.489 494.863L117.909 496.17L118.134 499.687L119.102 501.795M117.489 494.863L115.774 496.689L115.612 498.233L116.949 500.008L119.102 501.795M161.559 482.477L160.328 478.632L159.105 474.714L156.427 470.493L155.448 467.79L154.434 464.71L151.469 463.581M53.3491 520.745L52.0261 520.606L49.9139 520.904L48.6801 522.038L46.2545 521.783L44.1115 522.375L42.8236 524.023L42.5995 526.155L44.5106 526.356L46.8626 526.603L49.4195 525.608L51.5703 524.943L53.1637 522.509L53.3491 520.745ZM82.977 518.137L85.2244 517.259L88.532 517.606L88.4161 518.709L86.8536 520.848L84.8691 520.64L82.7375 520.416L82.977 518.137ZM110.094 514.671L106.942 515.677L103.425 515.902L104.25 518.664L105.542 520.509L107.379 520.702L109.553 519.816L110.497 517.908L110.094 514.671ZM123.912 516.123L127.069 515.786L130.036 515.132L131.41 516.911L129.665 518.66L126.667 519.608L123.712 518.034L123.912 516.123ZM142.554 513.401L144.805 513.191L147.3 512.785L149.359 513.001L149.243 514.104L147.959 516.421L145.522 516.982L143.916 515.996L142.554 513.401ZM162.116 506.167L165.516 505.633L165.408 506.662L163.69 507.448L162.116 506.167ZM171.635 501.148L173.755 500.777L174.354 500.022L174.138 502.08L172.447 501.903L171.635 501.148ZM179.039 501.406L179.867 500.602L182.745 500.087L182.567 501.777L181.194 502.822L179.651 502.66L179.039 501.406ZM203.712 498.575L206.067 498.079L208.187 497.708L209.932 497.371L210.327 499.27L208.853 499.858L206.729 500.973L204.524 500.741L203.712 498.575Z" stroke="black"/>
<path d="M270.1 455.558C280.738 448.528 286.34 443.823 295.1 434.558C305.467 423.594 307.479 418.278 317.6 403.147C325.57 391.233 324.336 381.815 328.651 368.147M328.651 368.147C330.994 353.399 330.994 344.657 328.651 329.909C326.416 315.841 325.295 307.135 317.6 295.147C310.962 284.804 306.684 277.25 295.1 273.147C285.897 269.887 270.1 273.147 270.1 273.147C270.1 273.147 261.161 276.077 257.773 280.558C254.23 285.245 248.95 293.194 247.773 302.558C246.406 313.436 248.341 317.616 254.1 329.909C258.058 338.357 262.618 342.076 270.1 347.647C278.656 354.017 295.1 358.647 295.1 358.647C295.1 358.647 315.549 364.437 328.651 368.147ZM328.651 368.147C345.424 368.147 354.965 370.29 371.6 368.147C386.771 366.192 395.661 364.947 409.6 358.647C409.6 358.647 422.235 353.391 428.6 347.647C437.699 339.435 444.1 327.647 444.6 320.647C445.1 313.647 458.6 295.147 458.6 295.147" stroke="#77992C" stroke-dasharray="1 3"/>
<defs>
<linearGradient id="paint0_linear" x1="144.942" y1="556.038" x2="310.271" y2="489.957" gradientUnits="userSpaceOnUse">
<stop stop-color="#779A2C"/>
<stop offset="0.807292" stop-color="#779A2C" stop-opacity="0"/>
</linearGradient>
</defs>
</svg>
